<mxfile host="app.diagrams.net" modified="2024-07-07T15:31:26.396Z" agent="Mozilla/5.0 (Windows NT 10.0; Win64; x64) AppleWebKit/537.36 (KHTML, like Gecko) Chrome/126.0.0.0 Safari/537.36" etag="2_TKdDVLaw2myxLKkjxH" version="24.6.4" type="device">
  <diagram name="Page-1" id="b5b7bab2-c9e2-2cf4-8b2a-24fd1a2a6d21">
    <mxGraphModel dx="1434" dy="746" grid="1" gridSize="10" guides="1" tooltips="1" connect="1" arrows="1" fold="1" page="1" pageScale="1" pageWidth="827" pageHeight="1169" background="none" math="0" shadow="0">
      <root>
        <mxCell id="0" />
        <mxCell id="1" parent="0" />
        <mxCell id="5ctx1uLLMBUiy_oQb26a-11" style="edgeStyle=orthogonalEdgeStyle;rounded=0;orthogonalLoop=1;jettySize=auto;html=1;exitX=0.5;exitY=1;exitDx=0;exitDy=0;exitPerimeter=0;" edge="1" parent="1" source="5ctx1uLLMBUiy_oQb26a-2" target="5ctx1uLLMBUiy_oQb26a-4">
          <mxGeometry relative="1" as="geometry" />
        </mxCell>
        <mxCell id="5ctx1uLLMBUiy_oQb26a-2" value="&lt;p style=&quot;margin:0px;margin-top:4px;margin-left:10px;text-align:left;&quot;&gt;&lt;span&gt;open_ai_api&lt;/span&gt;&lt;/p&gt;&lt;p style=&quot;margin:0px;margin-top:4px;margin-left:10px;text-align:left;&quot;&gt;&lt;span&gt;kioom_api를 통해서 가져온 주식 정보들을 다양한 관점에서 분석하여 정보를 제공해줄 수 있다.&lt;/span&gt;&lt;/p&gt;" style="html=1;shape=mxgraph.sysml.package;html=1;overflow=fill;whiteSpace=wrap;labelX=100;fontStyle=0" vertex="1" parent="1">
          <mxGeometry x="230" y="290" width="280" height="60" as="geometry" />
        </mxCell>
        <mxCell id="5ctx1uLLMBUiy_oQb26a-3" value="&lt;p style=&quot;margin:0px;margin-top:4px;margin-left:10px;text-align:left;&quot;&gt;&lt;span&gt;kioom_api&lt;/span&gt;&lt;/p&gt;&lt;p style=&quot;margin:0px;margin-top:4px;margin-left:10px;text-align:left;&quot;&gt;&lt;span&gt;키움에서 제공하는 api로 주식관련한 정보들을 실시간으로 가져올 수 있다.&lt;/span&gt;&lt;/p&gt;" style="html=1;shape=mxgraph.sysml.package;html=1;overflow=fill;whiteSpace=wrap;labelX=100;fontStyle=0" vertex="1" parent="1">
          <mxGeometry x="230" y="190" width="280" height="60" as="geometry" />
        </mxCell>
        <mxCell id="5ctx1uLLMBUiy_oQb26a-4" value="&lt;p style=&quot;margin:0px;margin-top:4px;margin-left:10px;text-align:left;&quot;&gt;&lt;span&gt;streamlit&lt;/span&gt;&lt;/p&gt;&lt;p style=&quot;margin:0px;margin-top:4px;margin-left:10px;text-align:left;&quot;&gt;&lt;span&gt;python 프로그램을 통해서 UI를 이쁘게 만들어 웹 사이트를 간단하게 운영할 수 있다.&lt;/span&gt;&lt;/p&gt;" style="html=1;shape=mxgraph.sysml.package;html=1;overflow=fill;whiteSpace=wrap;labelX=100;fontStyle=0" vertex="1" parent="1">
          <mxGeometry x="80" y="410" width="280" height="60" as="geometry" />
        </mxCell>
        <mxCell id="5ctx1uLLMBUiy_oQb26a-5" value="&lt;p style=&quot;margin:0px;margin-top:4px;margin-left:10px;text-align:left;&quot;&gt;&lt;span&gt;kakao_api&lt;/span&gt;&lt;/p&gt;&lt;p style=&quot;margin:0px;margin-top:4px;margin-left:10px;text-align:left;&quot;&gt;주식정보 업데이트 + Streamlit에 정보 Update 후&lt;br&gt;카카오톡을 통해서 Streamlit URL과 함께 공지&lt;/p&gt;" style="html=1;shape=mxgraph.sysml.package;html=1;overflow=fill;whiteSpace=wrap;labelX=100;fontStyle=0" vertex="1" parent="1">
          <mxGeometry x="380" y="410" width="280" height="60" as="geometry" />
        </mxCell>
        <mxCell id="5ctx1uLLMBUiy_oQb26a-7" style="edgeStyle=orthogonalEdgeStyle;rounded=0;orthogonalLoop=1;jettySize=auto;html=1;exitX=0.5;exitY=1;exitDx=0;exitDy=0;exitPerimeter=0;entryX=0.5;entryY=0;entryDx=0;entryDy=0;entryPerimeter=0;" edge="1" parent="1" source="5ctx1uLLMBUiy_oQb26a-3" target="5ctx1uLLMBUiy_oQb26a-2">
          <mxGeometry relative="1" as="geometry" />
        </mxCell>
        <mxCell id="5ctx1uLLMBUiy_oQb26a-13" style="edgeStyle=orthogonalEdgeStyle;rounded=0;orthogonalLoop=1;jettySize=auto;html=1;exitX=0.5;exitY=1;exitDx=0;exitDy=0;exitPerimeter=0;entryX=0.5;entryY=0;entryDx=0;entryDy=0;entryPerimeter=0;" edge="1" parent="1" source="5ctx1uLLMBUiy_oQb26a-2" target="5ctx1uLLMBUiy_oQb26a-5">
          <mxGeometry relative="1" as="geometry" />
        </mxCell>
      </root>
    </mxGraphModel>
  </diagram>
</mxfile>
